ply
format ascii 1.0
comment Created by Blender 2.65 (sub 0) - www.blender.org, source file: 'fairy.blend'
element vertex 80
property float x
property float y
property float z
property float nx
property float ny
property float nz
property uchar red
property uchar green
property uchar blue
element face 20
property list uchar uint vertex_indices
end_header
-0.500000 0.800000 -0.500000 -0.982872 -0.184289 0.000000 0 254 241
-0.200000 -0.800000 -0.200000 -0.982872 -0.184289 0.000000 96 250 242
-0.200000 -0.800000 0.200000 -0.982872 -0.184289 0.000000 237 245 243
-0.500000 0.800000 0.500000 -0.982872 -0.184289 0.000000 0 254 241
-0.500000 0.800000 0.500000 0.000000 1.000000 -0.000000 0 254 241
0.500000 0.800000 0.500000 0.000000 1.000000 -0.000000 0 254 241
0.500000 0.800000 -0.500000 0.000000 1.000000 -0.000000 0 254 241
-0.500000 0.800000 -0.500000 0.000000 1.000000 -0.000000 0 254 241
0.500000 0.800000 0.500000 0.982872 -0.184289 0.000000 0 254 241
0.200000 -0.800000 0.200000 0.982872 -0.184289 0.000000 3 254 241
0.200000 -0.800000 -0.200000 0.982872 -0.184289 0.000000 0 254 241
0.500000 0.800000 -0.500000 0.982872 -0.184289 0.000000 0 254 241
-0.200000 -0.800000 -0.200000 0.000000 -1.000000 -0.000000 255 245 250
0.200000 -0.800000 -0.200000 0.000000 -1.000000 -0.000000 255 245 250
0.200000 -0.800000 0.200000 0.000000 -1.000000 -0.000000 255 245 250
-0.200000 -0.800000 0.200000 0.000000 -1.000000 -0.000000 255 245 250
-0.200000 -0.800000 -0.200000 0.000000 -0.184289 -0.982872 96 250 242
-0.500000 0.800000 -0.500000 0.000000 -0.184289 -0.982872 0 254 241
0.500000 0.800000 -0.500000 0.000000 -0.184289 -0.982872 0 254 241
0.200000 -0.800000 -0.200000 0.000000 -0.184289 -0.982872 3 254 241
0.200000 -0.800000 0.200000 0.000000 -0.184289 0.982872 0 254 241
0.500000 0.800000 0.500000 0.000000 -0.184289 0.982872 0 254 241
-0.500000 0.800000 0.500000 0.000000 -0.184289 0.982872 0 254 241
-0.200000 -0.800000 0.200000 0.000000 -0.184289 0.982872 107 254 242
-1.311118 -1.774144 0.200000 0.184288 -0.982872 0.000000 0 254 241
-2.911118 -2.074144 0.500000 0.184288 -0.982872 0.000000 0 254 241
-2.911118 -2.074144 -0.500000 0.184288 -0.982872 0.000000 0 254 241
-1.311118 -1.774144 -0.200000 0.184288 -0.982872 0.000000 0 254 241
-2.911118 -2.074144 0.500000 -1.000000 0.000000 0.000000 0 254 241
-2.911118 -1.074144 0.500000 -1.000000 0.000000 0.000000 0 254 241
-2.911118 -1.074144 -0.500000 -1.000000 0.000000 0.000000 0 254 241
-2.911118 -2.074144 -0.500000 -1.000000 0.000000 0.000000 0 254 241
-2.911118 -1.074144 0.500000 0.184289 0.982872 0.000000 0 254 241
-1.311118 -1.374144 0.200000 0.184289 0.982872 0.000000 0 254 241
-1.311118 -1.374144 -0.200000 0.184289 0.982872 0.000000 0 254 241
-2.911118 -1.074144 -0.500000 0.184289 0.982872 0.000000 0 254 241
-1.311118 -1.374144 0.200000 1.000000 0.000000 -0.000000 255 245 250
-1.311118 -1.774144 0.200000 1.000000 0.000000 -0.000000 255 245 250
-1.311118 -1.774144 -0.200000 1.000000 0.000000 -0.000000 255 245 250
-1.311118 -1.374144 -0.200000 1.000000 0.000000 -0.000000 255 245 250
-1.311118 -1.774144 -0.200000 0.184288 0.000000 -0.982872 0 254 241
-2.911118 -2.074144 -0.500000 0.184288 0.000000 -0.982872 0 254 241
-2.911118 -1.074144 -0.500000 0.184288 0.000000 -0.982872 28 253 241
-1.311118 -1.374144 -0.200000 0.184288 0.000000 -0.982872 3 254 241
-1.311118 -1.374144 0.200000 0.184288 0.000000 0.982872 0 254 241
-2.911118 -1.074144 0.500000 0.184288 0.000000 0.982872 0 254 241
-2.911118 -2.074144 0.500000 0.184288 0.000000 0.982872 0 254 241
-1.311118 -1.774144 0.200000 0.184288 0.000000 0.982872 0 254 241
1.293812 -0.805490 -0.999915 0.000000 0.000000 -1.000000 255 245 250
1.293812 -2.405490 -0.999915 0.000000 0.000000 -1.000000 255 245 250
-1.306188 -2.405489 -0.999915 0.000000 0.000000 -1.000000 255 245 250
-1.306188 -0.805489 -0.999915 0.000000 0.000000 -1.000000 255 245 250
1.293813 -0.805490 1.000085 0.000000 -0.000000 1.000000 255 254 254
-1.306188 -0.805490 1.000085 0.000000 -0.000000 1.000000 255 243 253
-1.306188 -2.405489 1.000085 0.000000 -0.000000 1.000000 255 245 250
1.293811 -2.405490 1.000085 0.000000 -0.000000 1.000000 255 254 254
1.293812 -0.805490 -0.999915 1.000000 -0.000000 0.000000 255 254 254
1.293813 -0.805490 1.000085 1.000000 -0.000000 0.000000 255 254 254
1.293811 -2.405490 1.000085 1.000000 -0.000000 0.000000 255 254 254
1.293812 -2.405490 -0.999915 1.000000 -0.000000 0.000000 255 254 254
1.293812 -2.405490 -0.999915 -0.000000 -1.000000 -0.000000 255 245 250
1.293811 -2.405490 1.000085 -0.000000 -1.000000 -0.000000 255 245 250
-1.306188 -2.405489 1.000085 -0.000000 -1.000000 -0.000000 255 245 250
-1.306188 -2.405489 -0.999915 -0.000000 -1.000000 -0.000000 255 245 250
-1.306188 -2.405489 -0.999915 -1.000000 0.000000 -0.000000 255 245 250
-1.306188 -2.405489 1.000085 -1.000000 0.000000 -0.000000 255 245 250
-1.306188 -0.805490 1.000085 -1.000000 0.000000 -0.000000 255 245 250
-1.306188 -0.805489 -0.999915 -1.000000 0.000000 -0.000000 255 245 250
1.293813 -0.805490 1.000085 0.000000 1.000000 0.000000 255 254 254
1.293812 -0.805490 -0.999915 0.000000 1.000000 0.000000 255 254 254
-1.306188 -0.805489 -0.999915 0.000000 1.000000 0.000000 255 245 250
-1.306188 -0.805490 1.000085 0.000000 1.000000 0.000000 255 243 253
0.544428 -1.655717 1.108961 0.000000 0.000000 1.000000 0 0 0
0.744428 -1.655717 1.108961 0.000000 0.000000 1.000000 0 0 0
0.744428 -0.855717 1.108961 0.000000 0.000000 1.000000 2 2 2
0.544428 -0.855717 1.108961 0.000000 0.000000 1.000000 0 0 0
0.536227 -1.655716 -1.017912 0.000000 0.000000 1.000000 0 0 0
0.736227 -1.655716 -1.017912 0.000000 0.000000 1.000000 0 0 0
0.736227 -0.855716 -1.017912 0.000000 0.000000 1.000000 0 0 0
0.536227 -0.855716 -1.017912 0.000000 0.000000 1.000000 5 5 5
4 0 1 2 3
4 4 5 6 7
4 8 9 10 11
4 12 13 14 15
4 16 17 18 19
4 20 21 22 23
4 24 25 26 27
4 28 29 30 31
4 32 33 34 35
4 36 37 38 39
4 40 41 42 43
4 44 45 46 47
4 48 49 50 51
4 52 53 54 55
4 56 57 58 59
4 60 61 62 63
4 64 65 66 67
4 68 69 70 71
4 72 73 74 75
4 76 77 78 79
