ply
format ascii 1.0
comment Created by Blender 2.65 (sub 0) - www.blender.org, source file: 'ship.blend'
element vertex 120
property float x
property float y
property float z
property float nx
property float ny
property float nz
element face 45
property list uchar uint vertex_indices
end_header
1.000000 1.000000 -1.000000 0.000000 0.000000 -1.000000
1.000000 -1.000000 -1.000000 0.000000 0.000000 -1.000000
-1.000000 -1.000000 -1.000000 0.000000 0.000000 -1.000000
-1.000000 1.000000 -1.000000 0.000000 0.000000 -1.000000
1.000000 1.000000 -1.000000 0.000000 0.747409 -0.664364
-1.000000 1.000000 -1.000000 0.000000 0.747409 -0.664364
-0.100000 1.800000 -0.100000 0.000000 0.747409 -0.664364
0.100000 1.800000 -0.100000 0.000000 0.747409 -0.664364
1.000000 -1.000000 -1.000000 0.447214 -0.000000 -0.894427
1.000000 1.000000 -1.000000 0.447214 -0.000000 -0.894427
3.000000 1.000000 0.000000 0.447214 -0.000000 -0.894427
3.000000 -1.000000 0.000000 0.447214 -0.000000 -0.894427
-3.000000 1.000000 0.000000 -0.447214 0.000000 -0.894427
-1.000000 1.000000 -1.000000 -0.447214 0.000000 -0.894427
-1.000000 -1.000000 -1.000000 -0.447214 0.000000 -0.894427
-3.000000 -1.000000 0.000000 -0.447214 0.000000 -0.894427
-3.000000 1.000000 0.000000 -0.447214 0.000000 0.894427
-3.000000 -1.000000 0.000000 -0.447214 0.000000 0.894427
-1.000000 -1.000000 1.000000 -0.447214 0.000000 0.894427
-1.000000 1.000000 1.000000 -0.447214 0.000000 0.894427
0.999999 -1.000001 1.000000 -0.000000 0.000000 1.000000
1.000000 0.999999 1.000000 -0.000000 0.000000 1.000000
-1.000000 1.000000 1.000000 -0.000000 0.000000 1.000000
-1.000000 -1.000000 1.000000 -0.000000 0.000000 1.000000
1.000000 0.999999 1.000000 0.447214 -0.000000 0.894427
0.999999 -1.000001 1.000000 0.447214 -0.000000 0.894427
3.000000 -1.000000 0.000000 0.447214 -0.000000 0.894427
3.000000 1.000000 0.000000 0.447214 -0.000000 0.894427
3.000000 -1.000000 0.000000 0.000000 0.000000 0.000000
0.999999 -1.000001 1.000000 0.000000 0.000000 0.000000
0.999999 -1.000001 1.000000 0.000000 0.000000 0.000000
3.000000 -1.000000 0.000000 0.000000 0.000000 0.000000
-0.250000 -1.000000 0.500000 0.000000 0.425361 0.905024
-0.918751 -1.500000 0.735000 0.000000 0.425361 0.905024
0.918749 -1.500000 0.735000 0.000000 0.425361 0.905024
0.250000 -1.000000 0.500000 0.000000 0.425361 0.905024
-1.000000 -1.000000 -1.000000 0.000000 0.000000 0.000000
1.000000 -1.000000 -1.000000 0.000000 0.000000 0.000000
1.000000 -1.000000 -1.000000 0.000000 0.000000 0.000000
-1.000000 -1.000000 -1.000000 0.000000 0.000000 0.000000
-3.000000 -1.000000 0.000000 0.000000 0.000000 0.000000
-3.000000 -1.000000 0.000000 0.000000 0.000000 0.000000
-1.000000 -1.000000 1.000000 0.000000 0.000000 0.000000
-1.000000 -1.000000 1.000000 0.000000 0.000000 0.000000
-0.918750 -1.499999 -0.735000 0.000000 0.425362 -0.905024
-0.250000 -1.000000 -0.500000 0.000000 0.425362 -0.905024
0.250000 -1.000000 -0.500000 0.000000 0.425362 -0.905024
0.918750 -1.500000 -0.735000 0.000000 0.425362 -0.905024
-3.000000 -1.000000 0.000000 0.000000 0.000000 0.000000
-1.000000 -1.000000 1.000000 0.000000 0.000000 0.000000
0.300000 1.800000 0.000000 0.000000 0.000000 0.000000
0.100000 1.800000 -0.100000 0.000000 0.000000 0.000000
0.100000 1.800000 -0.100000 0.000000 0.000000 0.000000
0.300000 1.800000 0.000000 0.000000 0.000000 0.000000
-0.100000 1.800000 -0.100000 0.000000 0.000000 0.000000
-0.100000 1.800000 -0.100000 0.000000 0.000000 0.000000
3.000000 -1.000000 0.000000 0.000000 0.000000 0.000000
1.000000 -1.000000 -1.000000 0.000000 0.000000 0.000000
-1.000000 -1.000000 -1.000000 0.000000 0.000000 0.000000
-0.100000 1.800000 0.100000 0.000000 0.000000 0.000000
0.100000 1.800000 0.100000 0.000000 0.000000 0.000000
0.100000 1.800000 0.100000 0.000000 0.000000 0.000000
-0.100000 1.800000 0.100000 0.000000 0.000000 0.000000
-0.918751 -1.500000 0.735000 -0.000000 -1.000000 -0.000000
-0.918750 -1.499999 -0.735000 -0.000000 -1.000000 -0.000000
0.918750 -1.500000 -0.735000 -0.000000 -1.000000 -0.000000
0.918749 -1.500000 0.735000 -0.000000 -1.000000 -0.000000
0.999999 -1.000001 1.000000 0.000000 0.000000 0.000000
-3.000000 -1.000000 0.000000 0.000000 0.000000 0.000000
-1.000000 -1.000000 -1.000000 0.000000 0.000000 0.000000
-1.000000 -1.000000 -1.000000 0.000000 0.000000 0.000000
-3.000000 -1.000000 0.000000 0.000000 0.000000 0.000000
3.000000 1.000000 0.000000 0.247003 0.833635 -0.494006
1.000000 1.000000 -1.000000 0.247003 0.833635 -0.494006
0.100000 1.800000 -0.100000 0.247003 0.833635 -0.494006
0.300000 1.800000 0.000000 0.247003 0.833635 -0.494006
-1.000000 1.000000 -1.000000 -0.247003 0.833635 -0.494006
-3.000000 1.000000 0.000000 -0.247003 0.833635 -0.494006
-0.300000 1.800000 0.000000 -0.247003 0.833635 -0.494006
-0.100000 1.800000 -0.100000 -0.247003 0.833635 -0.494006
-3.000000 1.000000 0.000000 -0.247003 0.833635 0.494006
-1.000000 1.000000 1.000000 -0.247003 0.833635 0.494006
-0.100000 1.800000 0.100000 -0.247003 0.833635 0.494006
-0.300000 1.800000 0.000000 -0.247003 0.833635 0.494006
-1.000000 1.000000 1.000000 0.000000 0.747409 0.664364
1.000000 0.999999 1.000000 0.000000 0.747409 0.664364
0.100000 1.800000 0.100000 0.000000 0.747409 0.664364
-0.100000 1.800000 0.100000 0.000000 0.747409 0.664364
1.000000 0.999999 1.000000 0.247003 0.833635 0.494006
3.000000 1.000000 0.000000 0.247003 0.833635 0.494006
0.300000 1.800000 0.000000 0.247003 0.833635 0.494006
0.100000 1.800000 0.100000 0.247003 0.833635 0.494006
0.999999 -1.000001 1.000000 -0.000000 -1.000000 0.000001
-1.000000 -1.000000 1.000000 -0.000000 -1.000000 0.000001
-3.000000 -1.000000 0.000000 -0.000000 -1.000000 0.000001
3.000000 -1.000000 0.000000 -0.000000 -1.000000 -0.000001
0.999999 -1.000001 1.000000 -0.000000 -1.000000 -0.000001
-3.000000 -1.000000 0.000000 -0.000000 -1.000000 -0.000001
3.000000 -1.000000 0.000000 -0.000000 -1.000000 -0.000000
-3.000000 -1.000000 0.000000 -0.000000 -1.000000 -0.000000
-1.000000 -1.000000 -1.000000 -0.000000 -1.000000 -0.000000
1.000000 -1.000000 -1.000000 -0.000000 -1.000000 -0.000000
0.100000 1.800000 0.100000 -0.000000 1.000000 0.000000
-0.300000 1.800000 0.000000 -0.000000 1.000000 0.000000
-0.100000 1.800000 0.100000 -0.000000 1.000000 0.000000
0.300000 1.800000 0.000000 0.000000 1.000000 -0.000000
-0.100000 1.800000 -0.100000 -0.000000 1.000000 0.000000
0.100000 1.800000 -0.100000 0.000000 1.000000 0.000000
-0.300000 1.800000 0.000000 0.000000 0.000000 0.000000
-0.300000 1.800000 0.000000 0.000000 0.000000 0.000000
-0.250000 -1.000000 -0.500000 -0.598801 0.800898 -0.000000
-0.918750 -1.499999 -0.735000 -0.598801 0.800898 -0.000000
-0.918751 -1.500000 0.735000 -0.598801 0.800898 -0.000000
-0.250000 -1.000000 0.500000 -0.598801 0.800898 -0.000000
-1.000000 -1.000000 1.000000 0.000000 0.000000 0.000000
-1.000000 -1.000000 1.000000 0.000000 0.000000 0.000000
0.918749 -1.500000 0.735000 -0.598802 -0.800897 -0.000000
0.250000 -1.000000 0.500000 -0.598802 -0.800897 -0.000000
0.250000 -1.000000 -0.500000 -0.598802 -0.800897 -0.000000
0.918750 -1.500000 -0.735000 -0.598802 -0.800897 -0.000000
4 0 1 2 3
4 4 5 6 7
4 8 9 10 11
4 12 13 14 15
4 16 17 18 19
4 20 21 22 23
4 24 25 26 27
4 28 29 30 31
4 32 33 34 35
4 36 37 38 39
4 40 36 39 41
4 37 28 31 38
4 29 42 43 30
4 42 40 41 43
4 44 45 46 47
4 43 41 48 49
4 50 51 52 53
4 51 54 55 52
4 38 31 56 57
4 39 38 57 58
4 59 60 61 62
4 63 64 65 66
4 30 43 49 67
4 68 69 70 71
4 72 73 74 75
4 76 77 78 79
4 80 81 82 83
4 84 85 86 87
4 88 89 90 91
3 92 93 94
3 95 96 97
3 98 99 100
3 101 98 100
3 102 103 104
3 102 105 103
3 105 106 103
3 105 107 106
4 108 59 62 109
4 110 111 112 113
4 41 39 58 48
4 54 108 109 55
4 114 68 71 115
4 31 30 67 56
4 60 50 53 61
4 116 117 118 119
